<svg width="60" height="41" viewBox="0 0 60 41" fill="none" xmlns="http://www.w3.org/2000/svg">
<path d="M0.898603 23.0989C0.69455 27.5763 3.58652 32.0559 9.55589 35.3758C20.963 41.7198 39.2881 41.4264 50.4862 34.7204C55.8852 31.4872 58.6418 27.3537 58.7705 23.2286L58.7916 23.2283L58.6917 16.9911L58.6782 16.9913C58.5028 12.8009 55.6115 8.67308 50.0193 5.56305C38.6123 -0.780956 20.2871 -0.487519 9.089 6.21846C3.22898 9.72773 0.481921 14.2976 0.829226 18.7663L0.898603 23.0989Z" fill="#FCB62E"/>
<path d="M50.0244 5.56296C61.4315 11.907 61.6009 22.4861 50.4028 29.1921C39.2047 35.898 20.8795 36.1915 9.47246 29.8475C-1.93462 23.5035 -2.10402 12.9244 9.09409 6.21837C20.2922 -0.487606 38.6173 -0.781043 50.0244 5.56296Z" fill="#FCB62E"/>
<path fill-rule="evenodd" clip-rule="evenodd" d="M29.4275 1.523C22.1091 1.64922 14.8497 3.38362 9.36371 6.66889C3.85941 9.96513 1.26679 14.138 1.3312 18.1603C1.39561 22.1826 4.1205 26.2703 9.72752 29.3886C15.3316 32.5052 22.6682 34.006 30.0074 33.8885C37.3466 33.771 44.6315 32.0361 50.1329 28.7416C55.6372 25.4453 58.2298 21.2725 58.1654 17.2502C58.1645 17.1949 58.1631 17.1396 58.1612 17.0843C58.1571 17.0612 58.1544 17.0374 58.1534 17.0133C57.9884 13.0692 55.2613 9.07931 49.764 6.02197C44.1599 2.90531 36.8233 1.40454 29.4841 1.52206C29.4652 1.52236 29.4463 1.52267 29.4275 1.523ZM58.2439 21.8292C57.8578 22.6931 57.3577 23.5412 56.7454 24.3659L56.804 28.0278C57.7202 26.4476 58.1953 24.8205 58.2455 23.2123C58.2468 23.1697 58.2532 23.1284 58.2641 23.089L58.2439 21.8292ZM59.2894 23.3954C59.0917 27.7085 56.1833 31.9206 50.7559 35.1709C45.0591 38.5824 37.5823 40.3472 30.1077 40.4669C22.633 40.5866 15.1036 39.062 9.30052 35.8347C3.23721 32.4626 0.164562 27.8338 0.373161 23.0914L0.304295 18.7906C-0.0560394 14.0573 2.86683 9.33247 8.81907 5.76798C14.5012 2.36527 21.9541 0.60078 29.4096 0.472957C29.4305 0.472596 29.4514 0.472248 29.4723 0.471913C36.947 0.352223 44.4764 1.87674 50.2795 5.10408C55.9256 8.24416 58.9784 12.4723 59.2033 16.8731C59.2115 16.9084 59.216 16.945 59.2166 16.9827L59.3165 23.2199C59.3175 23.2813 59.3079 23.3403 59.2894 23.3954ZM1.41848 22.7787L1.42347 23.0905C1.42365 23.1013 1.42349 23.112 1.423 23.1228C1.32971 25.1697 1.92376 27.2444 3.23444 29.2111L3.17452 25.469C2.4573 24.6017 1.87112 23.7017 1.41848 22.7787ZM4.24361 26.6406L4.30721 30.6122C4.69974 31.0638 5.13285 31.5074 5.60692 31.9414L5.54091 27.8187C5.07862 27.4353 4.64609 27.0422 4.24361 26.6406ZM6.60447 28.645L6.67172 32.8448C7.59364 33.5715 8.63938 34.2653 9.81095 34.9169C9.86117 34.9448 9.91153 34.9726 9.96202 35.0003L9.89269 30.6704C9.66501 30.5516 9.43978 30.4302 9.21709 30.3064C8.2734 29.7816 7.40216 29.2263 6.60447 28.645ZM10.9514 31.1968L11.0212 35.5519C12.6751 36.37 14.4582 37.0586 16.3312 37.6174L16.2602 33.1874C14.3994 32.6489 12.6179 31.9858 10.9514 31.1968ZM17.3152 33.4772L17.3863 37.9161C19.6164 38.5138 21.9597 38.9337 24.3531 39.1759L24.2815 34.7041C21.8974 34.4687 19.5554 34.0604 17.3152 33.4772ZM25.3333 34.7966L25.4049 39.2706C26.9556 39.3932 28.5232 39.4419 30.0909 39.4168C32.027 39.3858 33.9593 39.2422 35.8561 38.9872L35.7845 34.5167C33.8847 34.767 31.9544 34.9076 30.0242 34.9385C28.4575 34.9636 26.8884 34.9165 25.3333 34.7966ZM36.8324 34.367L36.904 38.8344C38.821 38.5327 40.6951 38.1156 42.4928 37.5843L42.4217 33.1463C40.6169 33.6657 38.7432 34.0726 36.8324 34.367ZM43.467 32.8304L43.5379 37.2596C44.6596 36.8938 45.7479 36.4821 46.7942 36.0246L46.7238 31.6337C45.6733 32.0771 44.585 32.4761 43.467 32.8304ZM47.7668 31.173L47.8368 35.5467C48.661 35.151 49.4557 34.7254 50.2163 34.2699C50.4257 34.1445 50.6309 34.0178 50.8319 33.8899L50.763 29.5881C50.7329 29.6063 50.7027 29.6244 50.6724 29.6426C49.7482 30.196 48.7771 30.7062 47.7668 31.173ZM51.8027 28.9277L51.871 33.1918C52.4028 32.8143 52.9004 32.4276 53.3642 32.0333L53.2972 27.8462C52.8265 28.2158 52.3282 28.5766 51.8027 28.9277ZM54.3336 26.9793L54.3994 31.0858C54.9107 30.5806 55.37 30.0651 55.7779 29.5417L55.715 25.615C55.2921 26.0795 54.8316 26.5348 54.3336 26.9793Z" fill="#F9962A"/>
<path d="M40.0864 20.0383C43.2652 17.6957 43.2028 15.6058 40.6885 14.2075C38.1157 12.7766 35.6526 12.7659 30.4619 14.321C26.0211 15.6634 24.2474 15.2737 23.0195 14.5908C21.8208 13.9241 21.3992 12.9272 23.1786 11.8616C24.1257 11.2944 24.6753 11.2354 24.9969 11.4143C25.2308 11.5444 25.1192 11.8138 25.0953 12.132C24.9582 12.6193 24.8807 13.206 25.6993 13.6613C27.2196 14.5068 29.3281 14.0883 31.2511 12.9367C33.1453 11.8024 33.2435 10.6968 31.7817 9.8838C29.8521 8.81068 26.959 9.09119 23.6563 10.9339C23.1966 11.1755 22.8187 11.0979 22.4386 10.8865C20.9476 10.0573 19.9753 9.05247 19.7414 8.9224C19.3028 8.6785 18.7809 8.65341 18.4078 8.87684C18.006 9.11746 18.0969 9.36692 18.5062 9.59455C19.0324 9.88722 20.4309 10.3667 21.922 11.1959C22.3021 11.4073 22.4211 11.6061 21.8758 11.9327C21.2731 12.2936 20.8702 12.4673 20.3732 12.1909C18.9699 11.4104 18.1146 10.4707 17.8222 10.3081C17.3837 10.0642 16.8904 10.0219 16.4886 10.2625C16.0868 10.5031 16.0911 10.7707 16.5296 11.0146C17.0266 11.291 18.4241 11.7036 19.8859 12.5165C20.2952 12.7442 20.2697 12.962 19.955 13.218C16.6083 15.9313 17.1917 17.9794 19.6475 19.3452C22.6296 21.0037 25.2298 20.5271 29.5254 19.1703C33.0142 18.0941 34.4935 18.1875 36.1015 19.0818C37.3878 19.7972 37.4066 20.9678 36.0577 21.7756C35.3402 22.2053 34.7916 22.3312 34.47 22.1523C34.1777 21.9897 34.2606 21.7375 34.3429 21.4518C34.4816 21.0648 34.5602 20.545 33.5954 20.0084C32.2798 19.2768 29.8768 19.3989 27.9825 20.5332C25.9161 21.7707 25.82 23.0101 27.3696 23.8719C29.0652 24.8149 31.8478 24.8707 36.4707 22.2374C36.8725 21.9967 37.2797 22.0906 37.6598 22.302C39.0339 23.0662 39.4214 23.7458 40.1231 24.136C40.5616 24.3799 41.0836 24.405 41.4567 24.1816C41.8585 23.941 41.7968 23.7078 41.3583 23.4639C40.8613 23.1874 39.5797 22.7731 38.1764 21.9926C37.7963 21.7812 37.6772 21.5824 38.2225 21.2558C38.8252 20.8949 39.2281 20.7212 39.7251 20.9976C41.0407 21.7293 41.7791 22.604 42.0423 22.7503C42.51 23.0105 43.0033 23.0528 43.4051 22.8122C43.8356 22.5544 43.7734 22.2877 43.3349 22.0438C42.8671 21.7837 41.5866 21.4362 40.2125 20.672C39.8032 20.4443 39.8579 20.2427 40.0864 20.0383Z" fill="#F9962A"/>
</svg>
