<svg xmlns="http://www.w3.org/2000/svg" width="574" height="510" fill="none" viewBox="0 0 574 510"><path fill="#382D16" d="M457.408 267.209C457.408 245.627 446.023 237 429.902 237.047C413.781 237.095 402.479 245.305 402.551 267.388C402.551 282.66 409.93 292.256 430.057 292.196C450.184 292.137 457.456 282.039 457.408 267.209ZM435.797 265.142C435.797 281.585 434.111 285.457 430.213 285.457C426.314 285.457 424.233 280.904 424.233 265.142C424.173 244.325 426.302 240.824 430.093 240.812C433.669 240.919 435.726 243.883 435.797 265.178V265.142Z"/><path fill="#382D16" d="M461.583 251.388C462.564 251.388 463.15 251.089 463.975 251.089C465.338 251.089 465.924 252.284 466.02 253.611C466.235 257.494 466.247 263.529 466.271 269.265C466.271 274.045 466.2 278.311 466.02 281.621C465.637 286.294 465.063 287.357 463.509 287.369C462.719 287.369 462.038 287.178 461.356 287.178C460.292 287.178 459.801 288.158 459.813 289.126C459.813 290.488 460.304 291.169 461.571 291.169C466.821 291.05 472.083 290.942 477.334 290.918C482.201 290.918 487.068 290.99 491.936 291.074C493.586 291.074 493.885 290.189 493.873 288.923C493.895 288.678 493.865 288.432 493.787 288.199C493.708 287.967 493.583 287.753 493.418 287.571C493.253 287.389 493.052 287.243 492.827 287.143C492.603 287.042 492.361 286.989 492.115 286.987C491.529 286.987 490.752 287.178 490.369 287.178C488.324 287.178 487.439 285.242 487.236 281.741C487.032 279.219 486.925 275.527 486.913 271.536C486.913 266.959 486.913 261.904 487.068 258.307C487.236 252.081 488.013 251.137 489.771 251.137C490.967 251.137 492.498 251.424 493.359 251.412C494.818 251.412 495.691 250.826 495.691 249.177C495.726 248.861 495.686 248.542 495.576 248.244C495.465 247.946 495.287 247.678 495.055 247.462C494.823 247.245 494.543 247.085 494.238 246.995C493.934 246.905 493.612 246.887 493.299 246.942C491.936 246.942 489.113 247.444 487.164 247.444C479.57 247.444 473.04 243.214 473.004 232.901C473.004 227.56 474.918 222.971 480.467 222.959C482.022 222.959 482.859 223.533 482.859 224.512C482.859 225.194 482.38 225.779 481.507 226.651C480.494 227.568 479.699 228.699 479.18 229.963C478.66 231.226 478.43 232.589 478.506 233.953C478.506 238.434 481.352 241.732 487.104 241.708C491.577 241.708 495.476 239.45 495.476 232.447C495.476 224.955 491.051 219.039 478.302 219.075C467.3 219.075 459.825 225.456 459.849 233.63C459.849 239.605 462.612 242.079 467.969 244.206C469.237 244.78 469.727 245.269 469.727 246.046C469.727 246.823 469.142 247.504 467.874 247.504C466.032 247.504 463.796 247.038 461.894 247.038C461.599 247.035 461.305 247.091 461.032 247.203C460.758 247.315 460.51 247.48 460.301 247.69C460.093 247.899 459.929 248.148 459.818 248.422C459.708 248.696 459.653 248.989 459.658 249.285C459.638 249.551 459.673 249.818 459.761 250.07C459.848 250.323 459.986 250.554 460.167 250.751C460.347 250.948 460.566 251.106 460.809 251.216C461.053 251.325 461.316 251.384 461.583 251.388Z"/><path fill="#382D16" d="M173.735 301.207C176.821 301.207 177.921 298.1 177.921 296.331C177.921 293.021 176.127 291.265 173.7 291.265C155.761 291.324 139.018 291.814 119.572 291.874C105.879 291.874 94.1589 291.516 81.793 291.551C79.5806 291.551 77.8226 293.559 77.8345 296.427C77.8345 298.411 78.9467 301.064 81.817 301.052C83.3717 301.052 85.4047 300.37 87.3421 300.37C92.8673 300.37 93.3217 307.421 93.7881 314.483C95.4265 343.163 94.9003 383.793 94.0871 407.693C93.6805 418.066 92.5802 421.83 87.0551 421.842C86.1701 421.842 83.7424 421.197 82.1996 421.197C79.9872 421.197 78.2292 423.192 78.2292 425.845C78.2292 428.056 79.3534 430.697 82.2236 430.685C88.849 430.685 108.295 430.171 121.557 430.123C146.959 430.04 183.638 430.374 196.673 430.326C198.049 430.233 199.343 429.644 200.316 428.668C201.288 427.692 201.872 426.395 201.959 425.021C201.959 418.615 200.584 407.801 200.536 392.349C200.476 375.787 201.732 358.567 201.732 353.261C201.732 349.951 200.177 348.409 197.08 348.421C171.451 348.469 171.954 421.364 153.788 421.364C147.808 421.364 146.038 417.636 145.56 407.478C144.364 385.633 143.825 347.441 145.296 321.438C146.146 310.839 147.88 300.239 162.039 300.191C167.098 300.12 171.081 301.207 173.735 301.207Z"/><path fill="#382D16" d="M246.735 266.97C231.487 266.97 218.248 272.802 218.296 286.711C218.296 298.852 225.639 303.692 246.855 303.441C268.07 303.19 275.341 298.661 275.294 286.568C275.258 272.407 261.983 266.922 246.735 266.97ZM214.828 309.906C211.958 309.906 211.085 312.129 211.097 314.555C211.097 316.765 211.993 319.191 214.864 319.179C215.521 319.179 216.849 318.952 218.834 318.94C222.589 318.94 223.929 320.697 224.395 329.086C224.862 337.69 225.113 348.062 225.149 357.563C225.149 376.324 224.599 395.313 223.953 412.533C223.749 417.396 223.546 421.364 221.106 421.376C219.564 421.376 218.021 420.945 217.136 420.945C214.481 420.945 212.938 422.284 212.95 425.379C212.95 428.904 214.505 430.23 217.16 430.218C226.44 430.218 235.278 429.274 245.659 429.251C257.618 429.251 274.827 430.039 280.795 430.015C283.892 430.015 285.208 428.02 285.196 425.152C285.231 424.561 285.14 423.97 284.929 423.418C284.718 422.865 284.392 422.364 283.973 421.947C283.553 421.53 283.05 421.207 282.496 420.999C281.941 420.791 281.35 420.704 280.759 420.742C279.443 420.742 277.889 421.196 276.131 421.208C273.033 421.208 272.364 418.125 272.101 407.083C271.849 395.826 271.79 378.403 271.778 371.759C271.718 353.225 273.153 320.315 273.141 315.905C273.141 311.711 272.017 309.727 268.262 309.739C260.309 309.739 252.583 311.113 244.188 311.137C232.946 311.173 224.108 309.87 214.828 309.906Z"/><path fill="#382D16" d="M298.458 339.674C300.671 339.674 301.986 338.993 303.983 338.993C307.069 338.993 308.408 341.622 308.636 344.717C309.114 353.548 309.15 367.231 309.198 380.256C309.198 391.011 309.03 400.786 308.612 408.303C307.763 418.902 306.447 421.328 302.907 421.34C301.149 421.34 299.594 420.91 298.052 420.91C295.66 420.91 294.524 423.133 294.536 425.343C294.536 428.438 295.648 429.98 298.518 429.968C310.477 429.705 322.377 429.454 334.312 429.406C345.362 429.406 356.413 429.562 367.451 429.753C371.206 429.753 371.864 427.745 371.864 424.877C371.864 422.667 370.525 420.468 367.87 420.48C366.542 420.48 364.772 420.922 363.887 420.934C359.247 420.934 357.25 416.536 356.783 408.59C356.329 402.854 356.078 394.465 356.054 385.407C356.054 375.034 355.982 363.55 356.401 355.388C356.795 341.251 358.553 339.041 362.536 339.029C365.179 339.029 368.719 339.674 370.704 339.662C374.017 339.662 376.002 338.324 375.99 334.571C375.99 331.703 374.65 329.493 370.68 329.505C367.583 329.505 361.184 330.7 356.759 330.7C339.526 330.7 324.697 321.14 324.625 297.694C324.625 285.541 328.966 275.156 341.559 275.12C345.147 275.12 346.869 276.423 346.881 278.634C346.881 280.175 345.781 281.502 343.796 283.497C340.495 286.819 336.967 291.026 337.003 300.084C337.003 310.229 343.461 317.722 356.496 317.674C366.662 317.674 375.488 312.548 375.428 296.642C375.428 279.649 365.394 266.206 336.453 266.301C311.482 266.385 294.524 280.785 294.596 299.331C294.596 312.799 300.85 318.451 313.013 323.338C315.895 324.653 316.995 325.728 317.007 327.521C317.007 329.505 315.692 330.831 312.821 330.843C308.624 330.843 303.529 329.768 299.116 329.779C298.446 329.771 297.781 329.898 297.161 330.151C296.54 330.404 295.977 330.779 295.504 331.254C295.031 331.729 294.659 332.293 294.408 332.914C294.157 333.535 294.034 334.201 294.045 334.87C294.033 337.917 296.031 339.674 298.458 339.674Z"/><path fill="#382D16" d="M496.144 378.129C496.144 375.261 494.589 373.934 492.556 373.946C490.786 373.946 489.028 375.285 489.028 378.153C489.028 392.935 473.409 398.288 455.542 398.348C437.209 398.348 428.802 392.911 428.766 383.853C428.766 376.133 436.025 374.293 449.503 374.293C487.509 374.185 494.948 363.335 494.948 346.808C494.876 324.509 482.666 305.784 442.016 305.903C405.78 306.023 379.326 323.541 379.47 372.333C379.625 419.583 408.602 432.955 441.084 432.86C481.697 432.704 496.275 416.978 496.144 378.129ZM446.681 315.164C451.847 315.164 453.772 321.331 453.856 333.687C453.952 362.606 445.389 366.836 441.586 366.848C439.672 366.848 438.178 365.976 437.616 362.438C437.34 360.24 437.197 356.26 437.173 351.624C437.053 326.242 439.601 315.188 446.681 315.164Z"/><path fill="#382D16" d="M131.352 205.153C131.424 225.707 127.764 236.223 119.668 236.283C117.025 236.283 115.769 235.41 115.757 230.774C115.638 191.172 116.618 185.902 123.77 185.878C129.785 185.854 131.292 191.112 131.352 205.153ZM80.0949 259.967C83.9817 259.967 94.9004 259.669 102.674 259.645C111.332 259.645 123.878 259.824 128.135 259.812C128.834 259.778 129.491 259.468 129.962 258.951C130.433 258.433 130.679 257.75 130.647 257.052C130.647 255.295 129.75 254.04 128.123 254.052C125.863 254.052 121.976 254.817 120.469 254.829C116.881 254.829 115.686 252.965 115.686 247.826C115.686 242.305 116.547 241.672 132.213 238.266C147.88 234.861 159.157 230.284 159.074 205.344C159.074 187.921 149.088 180.309 132.656 180.357C125.384 180.357 109.574 181.181 101.562 181.205C93.549 181.229 86.8758 180.978 79.8677 181.002C79.5247 181.013 79.1876 181.095 78.8778 181.243C78.568 181.39 78.292 181.6 78.0674 181.859C77.8427 182.119 77.6742 182.422 77.5724 182.749C77.4706 183.077 77.4377 183.422 77.4758 183.763C77.4758 185.268 78.1097 186.392 79.8677 186.392C80.7407 186.392 81.9964 186.009 83.2521 186.009C86.3855 186.009 86.6486 189.881 86.9117 193.884C87.3183 200.528 87.5933 208.296 87.6173 215.944C87.6173 227.356 87.3063 238.756 87.0791 246.906C86.8519 252.798 86.23 254.937 83.0967 254.949C82.5944 254.949 80.956 254.578 80.083 254.578C79.7466 254.576 79.4136 254.645 79.1057 254.781C78.7978 254.916 78.522 255.115 78.2963 255.364C78.0706 255.614 77.9 255.908 77.7957 256.227C77.6914 256.547 77.6558 256.885 77.6911 257.219C77.715 258.844 78.3369 259.967 80.0949 259.967Z"/><path fill="#382D16" d="M167.17 247.289C167.051 250.671 166.692 254.686 164.934 254.686C164.683 254.686 163.295 254.447 163.044 254.447C161.418 254.447 160.796 255.702 160.796 257.088C160.765 257.41 160.8 257.736 160.898 258.045C160.997 258.353 161.157 258.639 161.37 258.884C161.583 259.128 161.843 259.327 162.135 259.469C162.427 259.61 162.744 259.69 163.068 259.705C167.959 259.561 173.473 259.418 179.369 259.406C187.525 259.406 203.287 259.705 208.071 259.693C208.833 259.681 209.561 259.371 210.099 258.831C210.637 258.291 210.944 257.563 210.953 256.801C210.953 254.793 209.757 254.041 208.059 254.053C207.054 254.053 205.177 254.566 202.414 254.566C195.011 254.566 193.624 252.595 193.588 238.804C193.588 221.632 195.765 215.98 198.156 215.98C199.783 215.98 200.166 217.474 201.051 219.565C202.438 223.7 204.961 226.197 209.721 226.185C217.506 226.185 219.731 217.127 219.695 206.468C219.695 193.693 215.007 189.941 208.728 189.965C199.699 189.965 194.461 198.533 192.763 215.454C192.021 220.473 191.77 221.106 190.515 221.106C189.51 221.106 188.757 220.234 188.757 217.856C188.757 209.706 190.467 203.432 190.431 195.534C190.431 193.024 189.917 191.028 186.843 191.04C182.705 191.04 179.189 191.686 175.302 191.698C170.411 191.698 166.154 191.351 162.255 191.363C160.258 191.363 159.863 192.558 159.863 194.004C159.863 195.45 160.246 196.513 162.255 196.501C162.757 196.501 163.379 196.37 164.503 196.37C166.512 196.37 166.775 197.362 167.039 202.5C167.433 209.025 167.589 216.84 167.613 225.313C167.601 232.363 167.493 239.725 167.17 247.289Z"/><path fill="#382D16" d="M239.834 166.829C231.188 166.829 223.665 170.139 223.689 178.026C223.689 184.922 227.863 187.67 239.906 187.503C251.949 187.335 256.075 184.826 256.051 177.943C256.027 169.924 248.493 166.829 239.834 166.829ZM221.728 191.207C220.09 191.207 219.599 192.474 219.599 193.848C219.599 195.222 220.113 196.477 221.74 196.477C222.123 196.477 222.936 196.346 224 196.346C226.129 196.346 226.882 197.338 227.157 202.094C227.433 206.85 227.564 212.849 227.576 218.262C227.576 228.921 227.265 239.7 226.93 249.475C226.811 252.236 226.691 254.494 225.316 254.494C224.431 254.494 223.558 254.255 223.055 254.255C221.549 254.255 220.664 255.008 220.664 256.765C220.664 258.772 221.549 259.525 223.055 259.513C228.329 259.513 233.34 258.988 239.236 258.964C246.005 258.964 255.8 259.418 259.184 259.406C260.942 259.406 261.684 258.271 261.684 256.645C261.701 256.31 261.648 255.975 261.527 255.662C261.406 255.349 261.22 255.065 260.982 254.828C260.744 254.591 260.459 254.407 260.145 254.288C259.831 254.169 259.496 254.117 259.16 254.136C258.419 254.136 257.534 254.399 256.529 254.399C254.771 254.399 254.401 252.654 254.245 246.38C254.09 240.107 254.078 230.092 254.066 226.328C254.066 215.8 254.843 197.122 254.843 194.613C254.843 192.103 254.197 191.112 252.069 191.112C247.548 191.112 243.171 191.9 238.399 191.912C232.013 191.924 226.966 191.195 221.728 191.207Z"/><path fill="#382D16" d="M288.759 220.663C288.688 197.481 296.581 194.194 304.115 194.17C309.76 194.17 312.02 195.521 312.02 197.409C312.02 198.915 310.824 200.169 308.528 201.424C304.139 203.814 300.264 207.471 300.288 214.987C300.288 222.014 304.462 227.26 314.376 227.224C324.78 227.224 328.727 218.656 328.727 210.136C328.727 198.484 321.635 188.972 298.925 189.044C274.719 189.128 262.329 199.189 262.413 224.631C262.509 254.721 278.199 261.186 298.53 261.126C321.862 261.054 328.595 249.75 328.548 233.45C328.548 230.821 327.651 229.447 325.522 229.447C325.139 229.41 324.753 229.461 324.392 229.595C324.032 229.73 323.707 229.945 323.442 230.223C323.177 230.502 322.979 230.837 322.862 231.204C322.746 231.57 322.715 231.958 322.771 232.339C322.771 233.593 323.405 235.469 323.417 237.358C323.417 240.488 320.176 244.384 310.011 244.42C295.863 244.504 288.819 236.832 288.759 220.663Z"/><path fill="#382D16" d="M402.397 229.877C402.397 228.252 401.512 227.487 400.376 227.487C399.24 227.487 398.379 228.252 398.379 229.877C398.379 238.242 389.505 241.313 379.351 241.349C368.935 241.349 364.163 238.254 364.151 233.116C364.151 228.73 368.265 227.714 375.919 227.69C397.446 227.619 401.739 221.464 401.715 212.072C401.715 199.405 394.743 188.781 371.662 188.853C351.092 188.853 336.071 198.867 336.155 226.567C336.238 253.383 352.694 260.983 371.135 260.923C394.217 260.864 402.469 251.937 402.397 229.877ZM371.805 194.123C376.589 194.123 378.335 197.612 378.359 204.627C378.359 221.058 370.514 223.46 366.998 223.472C365.24 223.472 363.864 222.982 363.35 220.975C363.051 218.941 362.919 216.887 362.955 214.832C362.92 200.421 365.275 194.147 371.805 194.123Z"/><path fill="#382D16" d="M286.199 118.337C279.024 118.337 271.848 117.93 264.78 117.799C262.496 117.799 262.269 119.089 262.281 120.918C262.436 123.953 262.676 127.287 262.688 130.633C262.699 133.979 261.958 139.285 261.958 140.575C261.958 141.866 262.496 142.703 263.644 142.703C269.624 142.703 270.904 135.007 272.255 127.562C273.08 123.391 273.822 121.181 275.651 121.181C277.17 121.181 277.78 122.376 277.792 124.204C277.9 161.333 276.764 162.551 273.008 162.563C271.49 162.563 270.616 162.109 269.516 162.109C269.303 162.112 269.093 162.158 268.898 162.246C268.704 162.334 268.53 162.461 268.387 162.619C268.244 162.777 268.136 162.964 268.069 163.166C268.002 163.368 267.978 163.582 267.997 163.794C267.997 164.858 268.308 165.611 269.528 165.611C272.183 165.611 280.387 165.419 286.008 165.407C291.629 165.395 299.917 165.515 302.643 165.503C303.935 165.503 304.246 164.738 304.234 163.675C304.247 163.463 304.216 163.251 304.143 163.051C304.07 162.852 303.956 162.67 303.809 162.517C303.661 162.365 303.484 162.244 303.287 162.163C303.091 162.083 302.88 162.044 302.667 162.049C301.615 162.049 300.694 162.504 299.175 162.516C295.456 162.516 294.32 161.321 294.2 124.192C294.2 122.292 294.798 121.157 296.317 121.145C298.135 121.145 298.984 123.344 299.749 127.514C301.148 134.947 302.536 142.619 308.467 142.595C309.604 142.595 310.13 141.758 310.13 140.468C310.13 139.177 309.424 134.015 309.412 130.525C309.4 127.036 309.544 123.845 309.687 120.798C309.687 118.982 309.448 117.691 307.295 117.703C300.18 117.835 293.04 118.313 286.199 118.337Z"/><path fill="#382D16" d="M331.347 158.811C331.263 157.52 331.263 156.003 331.251 154.33C331.251 150.231 331.251 145.905 331.598 142.105C331.957 134.744 333.619 132.915 336.382 132.903C338.774 132.903 339.647 134.72 339.659 137.373C339.659 142.463 339.097 151.342 339.12 158.106C339.12 163.412 339.982 165.383 342.792 165.383C345.291 165.3 347.647 164.977 349.968 164.977C353.149 164.977 356.425 165.264 358.925 165.324C359.107 165.321 359.287 165.281 359.453 165.205C359.619 165.13 359.768 165.021 359.889 164.885C360.011 164.749 360.102 164.589 360.159 164.416C360.215 164.242 360.235 164.059 360.217 163.878C360.217 163.041 359.834 162.288 358.925 162.288C358.769 162.288 358.16 162.372 357.932 162.372C356.031 162.372 355.349 160.854 355.337 157.903C355.337 153.194 356.126 143.324 356.103 137.934C356.103 127.908 353.328 122.913 343.677 122.937C334.791 122.937 331.311 126.701 330.522 135.353C330.52 135.62 330.418 135.878 330.237 136.074C330.056 136.271 329.808 136.393 329.541 136.417C328.776 136.417 328.405 136.046 328.345 135.365C328.345 127.466 331.192 119.567 331.18 115.313C331.18 113.258 330.713 112.505 328.656 112.505C324.554 112.505 318.862 114.668 310.813 114.692C310.594 114.682 310.376 114.72 310.173 114.801C309.97 114.883 309.787 115.008 309.637 115.166C309.486 115.325 309.371 115.514 309.299 115.721C309.228 115.927 309.202 116.147 309.222 116.365C309.222 117.356 309.689 117.954 310.67 117.954C311.052 117.954 312.033 117.799 312.499 117.799C314.09 117.799 314.401 118.623 314.485 121.384C314.724 128.064 314.903 134.529 314.927 141.197C314.927 146.741 314.927 152.43 314.748 158.883C314.676 160.938 314.532 162.468 313.396 162.468C313.169 162.468 312.332 162.396 312.2 162.396C312.012 162.401 311.827 162.445 311.658 162.527C311.488 162.608 311.337 162.724 311.216 162.867C311.094 163.01 311.003 163.177 310.951 163.358C310.898 163.538 310.883 163.727 310.909 163.914C310.909 164.678 311.303 165.515 312.212 165.515C314.604 165.515 319.125 165.336 322.617 165.324C326.946 165.324 332.041 165.324 334.851 165.443C335.253 165.418 335.629 165.237 335.898 164.937C336.166 164.637 336.306 164.244 336.286 163.842C336.294 163.646 336.263 163.451 336.194 163.268C336.125 163.085 336.02 162.918 335.885 162.776C335.75 162.635 335.588 162.522 335.408 162.444C335.228 162.366 335.035 162.326 334.839 162.324C334.612 162.324 333.643 162.408 333.249 162.408C332.041 162.372 331.502 161.308 331.347 158.811Z"/><path fill="#382D16" d="M402.132 147.579C402.132 146.599 401.594 146.145 400.936 146.145C400.278 146.145 399.74 146.599 399.74 147.59C399.74 152.669 394.37 154.509 388.211 154.533C382.052 154.557 379.015 152.669 379.003 149.55C379.003 146.897 381.502 146.276 386.178 146.264C399.25 146.264 401.821 142.5 401.809 136.8C401.809 129.14 397.587 122.699 383.607 122.735C371.145 122.735 362.08 128.805 362.08 145.583C362.08 161.823 372.09 166.424 383.26 166.388C397.181 166.352 402.18 160.939 402.132 147.579ZM383.631 125.925C386.513 125.925 387.589 128.04 387.601 132.295C387.601 142.237 382.818 143.695 380.725 143.695C380.233 143.78 379.727 143.67 379.314 143.389C378.901 143.108 378.614 142.678 378.512 142.189C378.332 140.959 378.252 139.716 378.273 138.473C378.225 129.785 379.66 125.937 383.631 125.925Z"/><path fill="#EA472C" d="M234.512 102.598C234.397 102.326 234.248 102.069 234.07 101.833C233.788 101.576 233.606 101.229 233.554 100.851C233.501 100.474 233.582 100.09 233.782 99.766C233.782 99.766 233.782 99.766 233.782 99.6943C232.921 98.3371 231.847 97.1267 230.601 96.1094C227.671 93.8747 225.459 92.4288 222.9 90.4092C220.34 88.3897 217.626 87.5532 215.007 86.4179C212.387 85.2827 209.744 84.7808 207.64 85.8921C207.293 85.4132 206.891 84.9761 206.444 84.5896C205.677 83.7138 204.703 83.0439 203.61 82.641C202.518 82.2381 201.341 82.1151 200.189 82.2832C197.989 82.7851 197.008 82.6656 195.477 81.5662L194.831 81.0882C192.894 79.5945 190.048 79.714 186.46 81.0882C185.255 79.6664 183.534 78.781 181.676 78.6265C178.212 78.0717 174.708 77.7959 171.2 77.802C168.375 78.0243 165.534 77.9201 162.733 77.4913C159.154 77.0688 155.536 77.113 151.969 77.6228C149.234 78.1654 146.436 78.3183 143.658 78.0769C140.62 77.8618 137.965 78.531 135.095 78.8058C132.225 79.0806 129.486 79.8454 128.159 81.7813C126.323 80.819 124.218 80.4992 122.179 80.8731C120.374 81.3137 118.785 82.381 117.694 83.8845C115.741 82.9736 113.507 82.8663 111.476 83.5858C109.684 84.1398 108.173 85.3586 107.254 86.9915C107.11 86.406 105.747 86.2387 103.152 86.6211C100.586 87.5549 98.0707 88.6239 95.6177 89.8237C93.1357 91.0633 90.99 92.8835 89.363 95.1295C89.0613 95.5504 88.6467 95.8777 88.1671 96.0735C84.4358 98.0333 83.0127 100.232 83.4551 104.295C83.2877 104.104 82.8811 104.295 82.4745 105.084C82.3908 105.622 82.3071 106.171 82.2114 106.697C81.8765 108.394 81.7809 117.763 81.6852 119.842C81.9244 122.447 82.1635 125.052 82.3788 127.621C82.465 128.469 82.6913 129.297 83.0485 130.071C83.1705 130.343 83.3229 130.599 83.503 130.836C83.7821 131.095 83.9631 131.442 84.0154 131.818C84.0678 132.195 83.9881 132.579 83.79 132.903C83.79 132.903 83.79 132.903 83.79 132.975C84.6544 134.33 85.7281 135.54 86.9712 136.56C89.9012 138.807 92.1136 140.241 94.6848 142.272C97.2561 144.304 99.9589 145.068 102.614 146.204C105.269 147.339 107.876 147.829 109.981 146.717C110.306 147.195 110.688 147.632 111.117 148.02C111.885 148.898 112.861 149.57 113.955 149.975C115.05 150.38 116.228 150.505 117.383 150.338C119.572 149.824 120.553 149.944 122.083 151.043L122.729 151.521C124.667 153.027 127.513 152.896 131.101 151.521C131.696 152.227 132.425 152.808 133.246 153.231C134.067 153.654 134.964 153.909 135.884 153.983C139.373 154.538 142.9 154.81 146.432 154.796C149.257 154.579 152.098 154.684 154.899 155.106C158.478 155.534 162.096 155.49 165.663 154.975C168.395 154.442 171.189 154.293 173.962 154.533C177 154.736 179.655 154.067 182.537 153.804C185.419 153.541 188.146 152.752 189.462 150.816C191.295 151.785 193.403 152.105 195.441 151.725C197.246 151.291 198.834 150.222 199.914 148.713C201.867 149.623 204.099 149.734 206.133 149.024C207.907 148.454 209.399 147.233 210.307 145.606C210.45 146.192 211.813 146.371 214.409 145.977C216.976 145.049 219.491 143.984 221.943 142.786C224.417 141.546 226.564 139.741 228.209 137.516C228.508 137.092 228.924 136.764 229.405 136.572C233.137 134.564 234.56 132.366 234.081 128.315C234.261 128.494 234.656 128.315 235.062 127.514C235.158 126.976 235.23 126.438 235.325 125.901C235.648 123.924 235.836 121.928 235.887 119.926C235.648 117.321 235.373 107.45 235.158 104.881C235.06 104.091 234.843 103.322 234.512 102.598Z"/><path fill="#F0C418" d="M223.902 99.4078C221.786 97.3567 219.365 95.6437 216.727 94.3291C215.339 93.5882 213.833 92.9548 212.338 92.3095L208.379 90.7799C203.449 89.0097 198.313 87.8772 193.095 87.41C189.161 87.1113 185.298 86.6094 181.483 85.9402C177.518 85.4029 173.524 85.0996 169.524 85.032C165.314 84.7571 161.678 85.032 159.406 86.227C157.041 85.2531 154.5 84.777 151.942 84.8284C149.385 84.8798 146.865 85.4576 144.541 86.5257C141.97 85.6328 139.237 85.3066 136.528 85.5697C134.07 85.7258 131.685 86.463 129.568 87.7207C127.861 87.0911 126.028 86.878 124.222 87.0993C120.539 87.6012 116.724 88.1151 112.957 88.9635C108.974 89.7851 105.147 91.2331 101.619 93.2536C100.891 93.6887 100.117 94.0414 99.3111 94.3052C96.8398 95.1815 94.5819 96.5702 92.6857 98.3801C90.8679 100.208 90.0786 103.495 89.947 107.199L90.1144 108.394C90.1501 110.738 90.8464 113.024 92.1236 114.991C93.1272 116.529 94.3754 117.893 95.819 119.03C97.9843 120.71 100.407 122.03 102.995 122.937C108.269 124.79 112.622 127.191 117.262 128.494C121.567 129.581 125.633 131.087 129.843 131.577C130.241 131.607 130.641 131.607 131.039 131.577C131.553 131.685 132.103 131.768 132.641 131.852C137.483 132.642 142.375 133.081 147.28 133.166C151.397 133.076 155.516 133.196 159.621 133.525C163.412 133.812 167.61 133.405 171.581 133.298C175.551 133.19 179.055 132.557 181.148 131.111C185.035 132.139 189.603 132.067 192.593 130.669C194.947 129.454 197.595 128.924 200.235 129.139C202.048 129.119 203.841 128.759 205.521 128.076C206.52 127.681 207.491 127.217 208.427 126.69C209.156 126.224 211.106 125.22 212.481 124.3C216.352 123.803 219.978 122.135 222.874 119.52C225.386 117.329 226.972 114.266 227.311 110.951C227.502 107.689 226.186 101.702 223.83 99.3959L223.902 99.4078Z"/><path fill="#EA472C" d="M149.531 120.536C147.594 122.018 147.426 123.344 146.769 123.846C146.101 124.257 145.357 124.525 144.581 124.634C143.805 124.743 143.015 124.69 142.26 124.479C140.454 124.145 140.263 123.464 141.243 122.711C141.853 122.233 144.461 121.42 146.338 119.974C147.139 119.353 146.099 119.066 144.102 118.684C142.105 118.301 141.53 118.564 140.921 119.03C139.721 120.072 138.605 121.206 137.584 122.424C137.002 122.818 136.34 123.079 135.646 123.189C134.951 123.298 134.241 123.253 133.566 123.057C131.76 122.711 131.413 122.053 132.37 121.336C133.326 120.619 136.077 119.735 137.787 118.433C138.397 117.967 138.529 117.489 137.153 117.238C124.118 114.25 122.659 111.621 125.386 109.47C127.777 107.666 132.717 107.212 139.282 108.454C145.082 109.566 147.654 111.442 145.74 112.9C144.403 113.812 142.814 114.284 141.196 114.25C140.276 114.152 139.347 114.3 138.505 114.68C137.883 115.158 139.127 115.756 142.93 116.473C148.168 117.477 152.712 117.166 154.698 115.648C157.233 113.688 155.176 112.254 146.936 109.195C138.696 106.136 134.487 103.71 139.33 99.9699C143.097 97.078 150.631 95.4767 163.248 96.851C164.268 97.0934 165.341 96.9261 166.238 96.3849C168.403 94.7239 168.714 93.2899 169.467 92.7043C170.137 92.2991 170.881 92.0339 171.656 91.9251C172.431 91.8162 173.221 91.8658 173.976 92.071C175.782 92.4175 175.973 93.0867 174.992 93.8515C174.287 94.3893 171.5 95.3572 169.419 96.9466C168.618 97.568 169.671 97.8548 171.668 98.2372C173.474 98.5718 174.239 98.3567 174.849 97.8906C176.196 96.7234 177.467 95.47 178.652 94.1383C179.244 93.7454 179.913 93.4853 180.615 93.376C181.317 93.2666 182.035 93.3107 182.718 93.505C184.536 93.8515 184.871 94.4968 183.914 95.2258C181.886 96.1969 179.918 97.2862 178.018 98.4881C177.408 98.9542 177.312 99.3963 178.652 99.6831C187.597 101.93 190.42 104.32 187.55 106.53C185.301 108.275 180.793 108.729 174.897 107.606C169.001 106.483 165.604 104.893 167.721 103.22C169.264 102.351 171.023 101.937 172.792 102.025C173.663 102.038 174.53 101.897 175.351 101.607C176.009 101.105 175.196 100.544 171.01 99.7429C164.827 98.5479 160.988 99.1454 159.051 100.591C157.113 102.037 157.376 103.71 167.805 107.367C179.011 111.358 179.932 114.011 175.985 117.058C172.038 120.106 163.966 121.42 152.413 120.046C151.425 119.832 150.393 120.007 149.531 120.536Z"/><path fill="#F0C418" d="M456.584 194.099C449.313 201.412 435.846 205.272 426.159 214.999C425.997 215.121 425.863 215.277 425.769 215.457C425.674 215.636 425.621 215.834 425.613 216.037C425.605 216.24 425.642 216.442 425.722 216.628C425.802 216.815 425.923 216.981 426.076 217.115C426.626 217.664 427.583 217.712 428.79 217.115C434.065 214.641 444.337 209.526 449.863 214.987C452.984 218.094 452.948 222.874 449.085 226.758C448.712 227.202 448.185 227.491 447.61 227.566C447.034 227.641 446.451 227.498 445.976 227.165C438.8 223.58 428.193 219.23 420.862 221.811C420.373 222 419.839 222.039 419.328 221.924C418.817 221.809 418.352 221.545 417.991 221.166C417.616 220.805 417.353 220.343 417.235 219.836C417.116 219.33 417.146 218.8 417.322 218.31C419.713 210.865 415.659 200.313 411.808 193.298C411.486 192.819 411.348 192.238 411.42 191.665C411.493 191.091 411.771 190.564 412.203 190.179C416.066 186.296 420.85 186.224 423.971 189.331C429.472 194.792 424.425 205.117 421.974 210.399C421.376 211.594 421.436 212.562 421.974 213.111C422.108 213.264 422.276 213.385 422.463 213.465C422.651 213.544 422.855 213.58 423.058 213.569C423.262 213.559 423.46 213.503 423.639 213.405C423.818 213.307 423.972 213.17 424.09 213.004C433.765 203.277 437.545 189.797 444.816 182.484C449.887 177.393 453.809 179.389 456.691 182.245C459.574 185.101 461.631 189.008 456.584 194.099Z"/></svg>