<svg width="608" height="545" viewBox="0 0 608 545" fill="none" xmlns="http://www.w3.org/2000/svg">
<g clip-path="url(#clip0)">
<path d="M607.3 316.475C607.1 315.175 606.8 313.875 606.5 312.575C606.2 311.275 605.9 309.875 605.5 308.375C605.1 306.875 604.7 305.375 604.1 303.775C604.4 301.175 604.6 298.575 604.6 295.975C604.6 295.275 604.6 294.575 604.6 293.775C604.6 292.975 604.5 292.275 604.4 291.375C604.2 289.775 604 288.075 603.7 286.075C603.4 284.275 603 282.575 602.5 280.875C602 279.275 601.5 277.875 601 276.575L599.5 272.675C599.3 272.075 599 271.375 598.8 270.775C598.6 270.175 598.4 269.475 598.1 268.775C597.4 266.075 596.9 263.275 596.8 260.475C596.7 258.975 596.4 257.375 596.1 255.675L595.1 254.175C594.5 253.275 593.8 252.375 593.1 251.375C591.8 249.575 590.5 247.875 589.2 246.075C586.5 242.675 583.8 239.175 580.7 235.575C577.7 232.075 574.5 228.875 571 225.875C567.4 222.775 563.7 219.875 560.1 217.075C552.4 211.075 545.3 206.975 539.8 205.775C536 201.375 531.7 197.475 526.9 194.175C522.2 191.075 517.2 188.575 511.9 186.675C508.7 182.175 504.2 177.675 499.6 173.675C495.1 169.675 490.4 166.275 486.6 164.375C486 162.875 485.4 161.375 484.5 159.775C483.5 157.775 482.3 155.975 480.9 154.275C470.7 141.675 461.8 127.275 450.7 115.775C449.7 114.675 448.8 113.475 448.1 112.075C446.6 109.475 445.2 107.275 443.9 105.275C442.7 103.475 441.4 101.775 440 100.175C438.7 98.675 437.3 97.175 435.7 95.875C434 94.275 432.2 92.875 430.3 91.475C429.3 89.475 428.2 87.475 426.9 85.475C426.2 84.475 425.5 83.375 424.6 82.275C423.6 81.0751 422.6 79.875 421.6 78.775C413.7 70.375 405.2 62.575 396.1 55.475C393.3 53.175 390.1 51.175 386.8 49.675C384.6 48.875 382.7 47.5751 381.1 45.875C374.1 38.975 366.4 34.5751 358.2 32.5751C355.3 31.875 354.5 31.275 352.8 29.675C351.2 28.175 349.5 26.875 347.7 25.775C345.4 24.375 343 23.1751 340.6 22.0751C338.8 21.2751 337 20.6751 335.2 20.0751C333.4 19.5751 331.7 19.275 330.2 18.975C327.2 18.375 324.8 18.0751 323.7 17.475C318.2 14.375 313.5 11.875 305.6 9.67505C295.9 7.07505 285.5 4.37505 276.2 3.57505C266.3 2.77505 257.8 1.77505 248.5 0.875049C246.8 0.775049 245.2 0.775049 243.5 0.875049C242.1 0.975049 240.6 1.17505 239.2 1.47505C236.8 2.07505 234.4 2.37505 231.9 2.27505C229 2.07505 226.3 1.67505 223.4 1.57505C222 1.47505 220.5 1.47505 219 1.47505C217.4 1.47505 215.8 1.67505 214.1 1.77505C211.8 1.97505 209.6 2.27505 207.4 2.57505C204.9 2.87505 202.5 3.27505 200 3.67505C197.2 4.17505 194.4 4.57505 191.6 5.07505L184.2 6.97505C181 7.57505 177.9 8.57505 174.9 9.97505C172.1 11.475 170 11.675 166.5 12.575C150 16.475 133.9 24.1751 119.7 34.0751C118.3 35.175 117 36.375 115.9 37.7751C115.4 38.4751 114.7 39.0751 114 39.5751C113.1 40.0751 112.2 40.5751 111.3 40.875C107 42.7751 103.1 44.7751 99.8003 47.5751C98.1003 48.9751 96.4003 50.4751 94.8003 52.0751C93.2003 53.7751 91.6003 55.6751 90.0003 57.7751C89.5003 58.4751 89.0003 59.0751 88.4003 59.675C87.7003 60.375 86.9003 61.0751 86.1003 61.5751C83.6003 63.2751 81.5003 64.875 79.6003 66.375C77.9003 67.875 76.2003 69.475 74.7003 71.275C73.9003 72.0751 73.2003 72.975 72.6003 73.875C71.9003 74.775 71.3003 75.775 70.6003 76.775C69.9003 77.775 69.3003 78.875 68.6003 79.975C67.9003 81.075 67.3003 82.275 66.6003 83.675C64.8003 85.0751 63.1003 86.5751 61.5003 88.175C61.1003 88.5751 60.6003 89.075 60.2003 89.575C59.8003 90.075 59.3003 90.5751 58.9003 91.175C58.0003 92.275 57.1003 93.475 56.1003 94.875C55.2003 96.175 54.4003 97.475 53.6003 98.875C52.9003 100.175 52.4003 101.375 51.9003 102.475L50.4003 105.775C50.1003 106.275 49.9003 106.875 49.6003 107.375C49.3003 107.875 49.1003 108.475 48.8003 108.975C47.6003 111.075 46.1003 113.075 44.5003 114.975C43.6003 115.975 42.8003 117.075 41.9003 118.375C41.0003 119.675 40.1003 121.075 39.3003 122.475C38.8003 123.275 38.4003 124.075 38.1003 124.875C37.8003 125.675 37.5003 126.375 37.2003 127.175C36.7003 128.675 36.2003 130.075 35.9003 131.475C35.5003 132.775 35.1003 134.075 34.7003 135.275C34.3003 136.475 33.8003 137.675 33.1003 138.675C29.6003 143.975 26.7003 149.675 24.5003 155.675C21.9003 162.675 19.5003 169.775 17.2003 176.875C16.5003 179.175 15.9003 181.275 15.3003 183.375C14.7003 185.475 14.4003 187.475 14.0003 189.375C13.7003 191.075 13.5003 192.875 13.4003 194.675C13.3003 196.175 13.5003 197.575 13.7003 199.075C7.60029 209.675 5.60029 219.975 7.00029 232.675C2.10029 244.275 1.10029 252.675 3.40029 267.175C2.70029 268.775 2.10029 270.375 1.60029 271.975C1.10029 274.175 0.800293 276.475 0.700293 278.675C0.700293 280.675 0.500293 282.775 0.500293 284.775L0.400293 290.875C0.400293 292.975 0.300293 294.975 0.300293 296.975C0.400293 298.975 0.400293 301.075 0.400293 303.075C0.400293 307.175 0.800293 311.275 1.20029 315.275C1.60029 319.275 2.20029 323.275 3.00029 327.175C3.30029 328.475 3.50029 329.675 3.40029 330.975C2.90029 341.875 4.80029 351.175 8.50029 358.775C8.30029 360.975 8.20029 363.175 8.20029 365.375C8.40029 368.075 8.80029 370.875 9.40029 373.575L10.3003 377.775L11.3003 381.975C12.0003 384.775 12.6003 387.675 13.3003 390.375C14.7003 395.875 16.4003 401.175 18.4003 406.475C19.3003 408.775 20.1003 411.075 20.9003 413.275C21.7003 415.475 22.5003 417.675 23.3003 419.775L24.4003 423.075C24.8003 424.175 25.2003 425.275 25.6003 426.375C26.4003 428.575 27.2003 430.775 27.9003 433.075C31.5003 443.375 36.2003 453.175 41.8003 462.475C47.1003 471.075 51.8003 478.475 57.4003 486.975C58.1003 488.075 58.9003 489.175 59.6003 490.275L62.1003 493.575C62.9003 494.675 63.8003 495.775 64.7003 496.875L67.5003 500.075L68.9003 501.575C69.4003 502.075 69.8003 502.575 70.4003 503.075L73.4003 505.975C75.4003 507.875 77.4003 509.575 79.6003 511.275C81.6003 512.975 83.7003 514.375 85.6003 515.875L87.1003 516.975C87.6003 517.375 88.1003 517.775 88.6003 518.075L91.6003 520.175L94.5003 522.275L97.6003 524.275L100.7 526.275C101.8 526.975 102.9 527.575 104 528.175C113.3 533.675 123.5 537.575 134.1 539.475C135.4 539.675 136.7 539.975 137.9 540.175C139.2 540.375 140.4 540.575 141.7 540.775L145.4 541.375L149.1 541.875C150.3 542.075 151.6 542.175 152.8 542.375C154 542.575 155.3 542.675 156.5 542.875C159 543.175 161.5 543.475 164.1 543.675C174 544.675 184.8 543.975 195.1 543.375C201.2 542.975 206.5 542.075 209.9 540.575C212.2 539.575 213.2 539.575 215.9 539.875C225.3 540.975 234.8 539.775 243.6 536.275C246.4 535.175 247.4 535.175 249.7 535.575C253.3 536.175 258.2 535.875 263.9 535.175C271.8 534.175 277.4 530.875 280.7 530.875C286.7 530.875 291.5 531.375 299.3 530.275C309.1 528.875 319.3 527.975 328.6 526.475C338.2 524.875 347.2 523.675 356.5 523.675C356.8 523.675 357.1 523.675 357.3 523.575C363.6 523.075 367.3 521.075 371.5 520.875C376.3 520.675 380.1 522.075 386.8 521.775C398 521.275 409.6 521.675 420.4 521.475C429.1 521.275 437.7 521.775 446.3 523.075C456.9 524.675 468.7 526.275 479.4 527.775C481.7 528.075 484 528.375 486.2 528.675L487.8 528.875L488.5 528.975L489.3 529.075L492.6 529.675C494.8 530.075 496.9 530.575 499.1 531.075C499.7 531.175 500.3 531.375 501 531.575C503.5 532.175 506.1 531.575 508 529.975C513.6 525.375 519.1 520.975 524.8 516.375C526.3 515.175 527.6 513.775 528.8 512.375C529.9 511.175 530.8 509.775 531.7 508.475C533.1 506.075 534.9 503.875 536.9 501.975C539.4 499.875 541.9 497.975 544.3 495.775C545.5 494.675 546.7 493.475 547.9 492.275C549.1 490.975 550.3 489.575 551.6 488.075C553.3 486.075 554.8 484.075 556.4 481.975C558.3 479.475 560.2 476.975 562 474.375C563.7 471.975 565.4 469.675 567.1 467.275L571.7 459.975C573.8 456.875 575.5 453.575 576.7 450.075C577.8 446.575 579.3 444.775 581.4 441.175C591.6 424.675 598.4 405.575 601.8 386.175C602.1 384.175 602.1 382.175 601.9 380.175C601.8 379.175 601.8 378.175 601.9 377.175C602.2 376.075 602.6 374.975 603 373.875C605 368.875 606.5 364.175 606.9 359.275C607.2 356.775 607.3 354.175 607.3 351.675C607.2 348.975 606.9 346.275 606.6 343.275C606.4 342.275 606.4 341.375 606.3 340.375C606.3 339.275 606.4 338.075 606.6 336.975C607.2 333.575 607.7 330.675 607.9 327.875C608.1 325.275 608.1 322.675 607.9 320.075C607.7 318.975 607.5 317.675 607.3 316.475Z" fill="#EFEAD7"/>
<path d="M488.9 272.875C488.9 249.475 476.6 240.075 459 240.175C441.5 240.275 429.3 249.175 429.4 273.075C429.5 289.675 437.4 300.075 459.2 299.975C481.1 299.875 488.9 288.875 488.9 272.875ZM465.5 270.675C465.6 288.475 463.7 292.775 459.5 292.775C455.2 292.775 453.1 287.875 453 270.775C452.9 248.175 455.2 244.375 459.4 244.375C463.2 244.275 465.4 247.575 465.5 270.675Z" fill="#382D15"/>
<path d="M493.4 255.675C494.5 255.675 495.1 255.375 496 255.375C497.5 255.375 498.1 256.675 498.2 258.075C498.4 262.275 498.4 268.875 498.5 275.075C498.5 280.275 498.4 284.875 498.2 288.475C497.8 293.575 497.2 294.675 495.5 294.675C494.7 294.675 493.9 294.475 493.2 294.475C492 294.475 491.5 295.575 491.5 296.575C491.5 298.075 492 298.775 493.4 298.775C499.1 298.675 504.8 298.575 510.5 298.475C515.8 298.475 521 298.575 526.3 298.675C528.1 298.675 528.4 297.675 528.4 296.375C528.4 295.275 527.8 294.275 526.5 294.275C525.9 294.275 525 294.475 524.6 294.475C522.4 294.475 521.4 292.375 521.2 288.575C521 285.875 520.9 281.775 520.8 277.475C520.8 272.475 520.8 267.075 521 263.175C521.2 256.375 522 255.375 523.9 255.375C525.2 255.375 526.9 255.675 527.8 255.675C529.4 255.675 530.3 255.075 530.3 253.275C530.3 251.875 529.7 250.875 527.8 250.875C526.3 250.875 523.3 251.375 521.2 251.375C513 251.375 505.9 246.775 505.9 235.575C505.9 229.775 508 224.775 514 224.775C515.7 224.775 516.5 225.375 516.5 226.475C516.5 227.175 516 227.875 515 228.775C513.4 230.375 511.7 232.375 511.8 236.675C511.8 241.575 514.9 245.075 521.1 245.075C526 245.075 530.2 242.575 530.1 235.075C530.1 226.975 525.3 220.575 511.5 220.575C499.6 220.575 491.5 227.475 491.5 236.375C491.5 242.775 494.5 245.575 500.3 247.875C501.7 248.475 502.2 249.075 502.2 249.875C502.2 250.775 501.6 251.475 500.2 251.475C498.2 251.475 495.8 250.975 493.7 250.975C492.2 250.975 491.3 252.175 491.3 253.375C491.3 254.875 492.2 255.675 493.4 255.675Z" fill="#382D15"/>
<path d="M181.4 309.675C184.8 309.675 185.9 306.275 185.9 304.375C185.9 300.775 184 298.875 181.3 298.875C161.9 298.975 143.7 299.475 122.6 299.575C107.8 299.575 95.1001 299.175 81.7001 299.175C79.3001 299.175 77.4001 301.375 77.4001 304.475C77.4001 306.675 78.6001 309.475 81.7001 309.475C83.4001 309.475 85.5001 308.775 87.7001 308.775C93.7001 308.775 94.2001 316.375 94.7001 324.075C96.5001 355.175 95.9002 399.275 95.0002 425.075C94.6002 436.375 93.4001 440.375 87.4001 440.375C86.4001 440.375 83.8002 439.675 82.1002 439.675C79.7002 439.675 77.8001 441.875 77.8001 444.675C77.8001 447.075 79.0002 449.975 82.1002 449.975C89.3002 449.975 110.4 449.375 124.7 449.375C152.2 449.275 192 449.675 206.1 449.575C208.5 449.575 211.8 447.175 211.8 443.775C211.8 436.875 210.3 425.075 210.3 408.375C210.2 390.375 211.6 371.775 211.6 365.975C211.6 362.375 209.9 360.675 206.6 360.675C178.8 360.775 179.3 439.775 159.7 439.875C153.2 439.875 151.3 435.875 150.8 424.775C149.5 401.075 148.9 359.675 150.5 331.375C151.4 319.875 153.3 308.375 168.6 308.375C174.3 308.575 178.6 309.675 181.4 309.675Z" fill="#382D15"/>
<path d="M260.6 272.575C244.1 272.675 229.7 278.875 229.8 293.975C229.8 307.175 237.8 312.375 260.7 312.075C283.6 311.775 291.6 306.975 291.5 293.775C291.5 278.475 277.1 272.575 260.6 272.575ZM226 319.175C222.9 319.175 221.9 321.575 221.9 324.175C221.9 326.575 222.9 329.175 226 329.175C226.7 329.175 228.2 328.975 230.3 328.875C234.4 328.875 235.8 330.775 236.3 339.875C236.8 349.175 237.1 360.475 237.1 370.775C237.2 391.175 236.5 411.675 235.8 430.375C235.6 435.675 235.4 439.975 232.7 439.975C231 439.975 229.3 439.475 228.4 439.475C225.5 439.475 223.9 440.975 223.9 444.275C223.9 448.075 225.6 449.575 228.5 449.575C238.6 449.575 248.1 448.575 259.4 448.475C272.3 448.475 291 449.375 297.5 449.275C300.9 449.275 302.3 447.075 302.3 443.975C302.3 441.575 300.8 439.175 297.5 439.175C296.1 439.175 294.4 439.675 292.5 439.675C289.1 439.675 288.4 436.375 288.1 424.375C287.8 412.175 287.8 393.275 287.7 386.075C287.6 365.975 289.2 330.275 289.2 325.475C289.2 320.975 288 318.775 283.9 318.775C275.3 318.775 266.9 320.275 257.8 320.275C245.6 320.475 236 319.075 226 319.175Z" fill="#382D15"/>
<path d="M316.6 351.475C319 351.475 320.4 350.775 322.6 350.775C326 350.775 327.4 353.675 327.6 356.975C328.1 366.575 328.2 381.375 328.2 395.475C328.2 407.175 328 417.775 327.6 425.875C326.7 437.375 325.2 439.975 321.4 439.975C319.5 439.975 317.8 439.475 316.1 439.475C313.5 439.475 312.3 441.875 312.3 444.275C312.3 447.675 313.5 449.275 316.6 449.275C329.5 448.975 342.5 448.675 355.4 448.675C367.4 448.675 379.3 448.875 391.3 449.075C395.4 449.075 396.1 446.875 396.1 443.775C396.1 441.375 394.6 438.975 391.8 438.975C390.4 438.975 388.4 439.475 387.5 439.475C382.5 439.475 380.3 434.675 379.8 426.075C379.3 419.875 379 410.775 379 400.975C379 389.675 378.9 377.275 379.4 368.375C379.8 353.075 381.7 350.675 386 350.675C388.9 350.675 392.7 351.375 394.9 351.375C398.5 351.375 400.6 349.875 400.6 345.875C400.6 342.775 399.1 340.375 394.8 340.375C391.4 340.375 384.5 341.575 379.7 341.575C361 341.675 344.9 331.175 344.9 305.775C344.9 292.575 349.6 281.375 363.3 281.275C367.1 281.275 369.1 282.675 369.1 285.075C369.1 286.775 367.9 288.175 365.8 290.375C362.2 293.975 358.4 298.575 358.4 308.375C358.4 319.375 365.4 327.475 379.5 327.475C390.5 327.475 400.1 321.875 400 304.675C399.9 286.275 389.1 271.675 357.8 271.775C330.7 271.875 312.4 287.475 312.4 307.575C312.4 322.175 319.2 328.375 332.4 333.575C335.5 334.975 336.7 336.175 336.7 338.075C336.7 340.275 335.3 341.675 332.2 341.675C327.6 341.675 322.1 340.475 317.4 340.475C314 340.475 311.9 343.175 311.9 345.975C311.8 349.575 314 351.475 316.6 351.475Z" fill="#382D15"/>
<path d="M530.9 393.175C530.9 390.075 529.2 388.675 527.1 388.675C525.2 388.675 523.3 390.075 523.3 393.275C523.4 409.275 506.4 415.075 487 415.175C467.1 415.275 458 409.275 458 399.475C458 391.075 465.9 389.175 480.5 389.075C521.7 388.975 529.8 377.175 529.7 359.275C529.6 335.075 516.4 314.775 472.3 314.875C433 314.975 404.4 333.975 404.5 386.875C404.7 438.075 436.1 452.575 471.3 452.475C515.2 452.375 531 435.275 530.9 393.175ZM472.5 324.875C481.6 324.875 485 331.575 485 344.975C485.1 376.375 470 380.975 463.3 380.975C459.9 380.975 457.3 380.075 456.3 376.175C455.8 373.775 455.6 369.475 455.5 364.475C455.5 336.875 460 324.875 472.5 324.875Z" fill="#382D15"/>
<path d="M135.5 205.575C135.6 227.875 131.7 239.275 122.8 239.375C119.9 239.375 118.6 238.475 118.6 233.375C118.5 190.375 119.5 184.675 127.3 184.675C133.8 184.575 135.5 190.275 135.5 205.575ZM80.0002 264.975C84.2002 264.975 96.0002 264.675 104.5 264.675C113.9 264.675 127.5 264.875 132.1 264.875C133.9 264.875 134.8 263.275 134.8 261.875C134.8 259.975 133.8 258.575 132.1 258.575C129.7 258.575 125.4 259.375 123.8 259.375C119.9 259.375 118.6 257.375 118.6 251.775C118.6 245.775 119.5 245.075 136.5 241.375C153.3 237.675 165.7 232.675 165.6 205.675C165.5 186.775 154.8 178.475 137 178.575C129.1 178.575 112 179.475 103.3 179.475C94.7002 179.475 87.4002 179.275 79.8002 179.275C78.3002 179.275 77.2002 180.475 77.2002 182.275C77.2002 183.875 77.9002 185.175 79.8002 185.075C80.8002 185.075 82.1002 184.675 83.5002 184.675C86.9002 184.675 87.2002 188.875 87.5002 193.275C87.9002 200.475 88.2002 208.875 88.3002 217.175C88.3002 229.575 88.0002 241.875 87.7002 250.775C87.4002 257.175 86.8002 259.475 83.4002 259.475C82.9002 259.475 81.1002 259.075 80.1002 259.075C78.6002 259.075 77.5002 260.275 77.5002 261.975C77.4002 263.775 78.1002 264.975 80.0002 264.975Z" fill="#382D15"/>
<path d="M174.3 251.275C174.2 254.975 173.8 259.275 171.9 259.275C171.6 259.275 170.1 258.975 169.9 258.975C168.1 258.975 167.5 260.375 167.5 261.875C167.5 263.275 168.2 264.775 170 264.675C175.3 264.475 181.3 264.375 187.7 264.375C196.5 264.375 213.7 264.675 218.8 264.675C220.7 264.675 221.9 263.075 221.9 261.575C221.9 259.375 220.7 258.575 218.8 258.575C217.7 258.575 215.7 259.175 212.7 259.175C204.7 259.175 203.2 257.075 203.1 242.075C203 223.475 205.5 217.375 208.1 217.275C209.9 217.275 210.3 218.875 211.2 221.175C212.7 225.675 215.4 228.375 220.6 228.375C229 228.375 231.4 218.575 231.4 206.975C231.4 193.075 226.3 189.075 219.5 189.075C209.7 189.075 204 198.375 202.2 216.775C201.4 222.175 201.1 222.875 199.8 222.875C198.7 222.875 197.9 221.975 197.9 219.375C197.9 210.575 199.8 203.775 199.7 195.175C199.7 192.475 199.1 190.275 195.7 190.275C191.2 190.275 187.4 190.975 183.2 190.975C177.9 190.975 173.3 190.575 169.1 190.575C166.9 190.575 166.5 191.975 166.5 193.475C166.5 194.875 166.9 196.175 169.1 196.175C169.6 196.175 170.3 196.075 171.5 196.075C173.7 196.075 174 197.175 174.2 202.775C174.6 209.875 174.8 218.275 174.8 227.475C174.8 235.075 174.7 243.075 174.3 251.275Z" fill="#382D15"/>
<path d="M253.1 163.975C243.7 163.975 235.6 167.575 235.6 176.175C235.6 183.675 240.1 186.675 253.2 186.475C266.3 186.275 270.7 183.575 270.7 176.075C270.6 167.275 262.5 163.975 253.1 163.975ZM233.5 190.375C231.7 190.375 231.2 191.775 231.2 193.275C231.2 194.675 231.8 196.175 233.5 196.075C233.9 196.075 234.7 195.975 235.9 195.975C238.2 195.975 239 197.075 239.3 202.175C239.6 207.475 239.7 213.875 239.8 219.675C239.8 231.275 239.5 242.875 239.1 253.575C239 256.575 238.8 258.975 237.3 258.975C236.3 258.975 235.4 258.675 234.9 258.675C233.3 258.675 232.3 259.475 232.3 261.375C232.3 263.575 233.3 264.375 234.9 264.375C240.6 264.375 246 263.775 252.4 263.775C259.7 263.775 270.3 264.275 274 264.275C275.9 264.275 276.7 263.075 276.7 261.275C276.7 259.875 275.9 258.575 274 258.575C273.2 258.575 272.2 258.875 271.1 258.875C269.2 258.875 268.8 256.975 268.6 250.175C268.4 243.275 268.4 232.475 268.4 228.375C268.4 216.975 269.3 196.675 269.2 193.975C269.2 191.375 268.5 190.175 266.2 190.175C261.3 190.175 256.6 190.975 251.4 191.075C244.6 191.175 239.2 190.375 233.5 190.375Z" fill="#382D15"/>
<path d="M306.1 222.375C306 197.275 314.6 193.675 322.7 193.675C328.8 193.675 331.3 195.175 331.3 197.175C331.3 198.775 329.9 200.175 327.5 201.575C322.8 204.175 318.5 208.175 318.6 216.275C318.6 223.875 323.1 229.575 333.9 229.575C345.2 229.575 349.5 220.275 349.5 211.075C349.5 198.475 341.8 188.075 317.2 188.175C291 188.275 277.5 199.175 277.6 226.775C277.7 259.375 294.7 266.375 316.7 266.375C342 266.275 349.3 254.075 349.2 236.375C349.2 233.475 348.2 232.075 345.9 232.075C343.6 232.075 342.9 233.575 342.9 235.175C342.9 236.575 343.6 238.575 343.6 240.575C343.6 243.975 340.1 248.175 329.1 248.275C313.8 248.175 306.2 239.875 306.1 222.375Z" fill="#382D15"/>
<path d="M429.3 232.375C429.3 230.575 428.3 229.775 427.1 229.775C426 229.775 424.9 230.575 424.9 232.375C424.9 241.475 415.3 244.775 404.3 244.775C393 244.775 387.8 241.475 387.8 235.875C387.8 231.075 392.3 229.975 400.6 229.975C424 229.875 428.6 223.275 428.6 213.075C428.6 199.375 421 187.775 396 187.875C373.7 187.975 357.4 198.775 357.5 228.775C357.6 257.875 375.4 266.075 395.4 266.075C420.4 265.975 429.3 256.275 429.3 232.375ZM396.1 193.575C401.3 193.575 403.2 197.375 403.2 204.975C403.3 222.775 394.7 225.375 390.9 225.375C389 225.375 387.5 224.875 386.9 222.675C386.6 221.275 386.5 218.875 386.5 215.975C386.5 200.375 389 193.575 396.1 193.575Z" fill="#382D15"/>
<path d="M303.3 111.375C295.5 111.375 287.7 110.975 280.1 110.775C277.6 110.775 277.4 112.175 277.4 114.175C277.6 117.475 277.8 121.075 277.8 124.675C277.8 128.475 277 134.075 277 135.475C277 136.875 277.6 137.775 278.8 137.775C285.3 137.775 286.7 129.475 288.1 121.375C289 116.875 289.8 114.475 291.8 114.475C293.4 114.475 294.1 115.675 294.1 117.775C294.2 158.075 293 159.375 289 159.375C287.4 159.375 286.4 158.875 285.2 158.875C284.3 158.875 283.6 159.575 283.6 160.675C283.6 161.775 283.9 162.675 285.3 162.675C288.2 162.675 297.1 162.475 303.2 162.475C309.4 162.475 318.3 162.575 321.2 162.575C322.6 162.575 322.9 161.775 322.9 160.575C322.9 159.375 322.2 158.775 321.2 158.775C320 158.775 319.1 159.275 317.4 159.275C313.4 159.275 312.1 157.975 312 117.675C312 115.575 312.6 114.375 314.3 114.375C316.3 114.375 317.2 116.775 318 121.275C319.5 129.375 321 137.675 327.4 137.675C328.6 137.675 329.2 136.775 329.2 135.375C329.2 133.975 328.4 128.375 328.4 124.575C328.4 120.975 328.5 117.375 328.7 114.075C328.7 112.075 328.4 110.675 326.1 110.675C318.5 110.875 310.7 111.375 303.3 111.375Z" fill="#382D15"/>
<path d="M352.3 155.275C352.2 153.875 352.2 152.275 352.2 150.375C352.2 145.975 352.3 141.275 352.6 137.075C353 129.075 354.8 127.075 357.8 127.075C360.4 127.075 361.3 129.075 361.4 131.875C361.4 137.375 360.8 147.075 360.8 154.375C360.8 160.175 361.7 162.275 364.8 162.275C367.5 162.175 370.1 161.875 372.5 161.875C376 161.875 379.5 162.175 382.2 162.275C383.2 162.275 383.6 161.475 383.6 160.675C383.6 159.775 383.2 158.975 382.2 158.975C382 158.975 381.4 159.075 381.1 159.075C379 159.075 378.3 157.475 378.3 154.275C378.3 149.175 379.2 138.475 379.1 132.575C379.1 121.675 376.1 116.275 365.6 116.275C356 116.275 352.2 120.375 351.4 129.775C351.3 130.475 350.9 130.975 350.3 130.975C349.5 130.975 349.1 130.575 349.1 129.875C349.1 121.275 352.2 112.775 352.2 108.175C352.2 105.975 351.7 105.175 349.5 105.175C345.1 105.175 338.9 107.475 330.2 107.575C329 107.575 328.5 108.375 328.5 109.375C328.5 110.475 329 111.075 330.1 111.075C330.5 111.075 331.6 110.875 332.1 110.875C333.8 110.875 334.2 111.775 334.3 114.775C334.6 121.975 334.8 128.975 334.8 136.275C334.8 142.275 334.8 148.475 334.6 155.475C334.5 157.675 334.4 159.375 333.1 159.375C332.9 159.375 331.9 159.275 331.8 159.275C330.8 159.275 330.4 160.075 330.4 160.975C330.4 161.775 330.8 162.675 331.8 162.675C334.4 162.675 339.3 162.475 343.1 162.475C347.8 162.475 353.3 162.575 356.4 162.575C357.4 162.575 358 161.675 358 160.875C358 160.075 357.4 159.275 356.4 159.275C356.2 159.275 355.2 159.375 354.7 159.375C353 159.175 352.4 157.975 352.3 155.275Z" fill="#382D15"/>
<path d="M429 143.075C429 141.975 428.4 141.475 427.7 141.475C427 141.475 426.4 141.975 426.4 143.075C426.4 148.575 420.6 150.575 413.9 150.575C407.1 150.575 403.9 148.575 403.9 145.175C403.9 142.275 406.6 141.675 411.6 141.575C425.8 141.575 428.5 137.475 428.5 131.275C428.5 122.975 423.9 115.975 408.8 115.975C395.3 115.975 385.4 122.575 385.5 140.775C385.6 158.375 396.4 163.375 408.5 163.375C423.6 163.475 429 157.575 429 143.075ZM408.9 119.575C412 119.575 413.2 121.875 413.2 126.475C413.2 137.275 408.1 138.875 405.7 138.875C404.5 138.875 403.6 138.575 403.3 137.275C403.1 136.475 403 134.975 403 133.275C403.1 123.775 404.6 119.575 408.9 119.575Z" fill="#382D15"/>
<path d="M247.3 94.275C247.2 93.975 247 93.675 246.8 93.475C246.1 92.575 246.1 92.275 246.5 91.275V91.175C245.5 89.575 244.3 88.275 243 87.275C239.8 84.875 237.4 83.275 234.7 81.075C231.9 78.875 229 78.075 226.1 76.775C223.2 75.575 220.4 74.975 218.1 76.175C217.7 75.675 217.4 75.175 216.9 74.775C215 72.775 212.3 71.775 210.1 72.275C207.7 72.875 206.7 72.675 205 71.475L204.3 70.975C202.2 69.375 199.1 69.475 195.3 70.975C194.1 69.675 192.7 68.575 190.1 68.275C187.6 67.975 182.5 67.175 178.7 67.375C174.9 67.575 172.8 67.475 169.5 67.075C166.3 66.675 161.6 66.575 157.8 67.175C154 67.775 152.1 67.975 148.8 67.675C145.5 67.475 142.6 68.175 139.5 68.475C136.4 68.775 133.4 69.575 132 71.675C129.6 70.575 127.5 70.275 125.5 70.675C123.6 71.075 122 72.175 120.6 73.975C118.4 72.875 116 72.975 113.9 73.675C111.9 74.375 110.2 75.675 109.4 77.375C109.2 76.775 107.8 76.575 105 76.975C102.3 78.075 99.5001 79.075 96.8001 80.475C94.2001 81.875 91.7001 83.675 90.0001 86.175C89.7001 86.675 89.2001 86.875 88.7001 87.175C84.7001 89.375 83.1001 91.775 83.6001 96.175C83.4001 95.975 83.0001 96.175 82.5001 97.075C82.4001 97.675 82.3001 98.275 82.2001 98.775C81.8001 100.575 81.7001 110.775 81.6001 113.075C81.9001 115.875 82.1001 118.675 82.4001 121.475C82.5001 122.375 82.7001 123.375 83.1001 124.175C83.2001 124.475 83.4001 124.775 83.6001 124.975C84.3001 125.875 84.3001 126.175 83.9001 127.175V127.275C84.9001 128.875 86.1001 130.175 87.4001 131.175C90.6001 133.575 93.0001 135.175 95.7001 137.375C98.5001 139.575 101.4 140.375 104.3 141.675C107.2 142.875 110 143.475 112.3 142.275C112.7 142.775 113 143.275 113.5 143.675C115.4 145.675 118.1 146.675 120.3 146.175C122.7 145.575 123.7 145.775 125.4 146.975L126.1 147.475C128.2 149.075 131.3 148.975 135.1 147.475C136.3 148.775 137.7 149.875 140.3 150.175C142.8 150.475 147.9 151.275 151.7 151.075C155.5 150.875 157.6 150.975 160.9 151.375C164.1 151.775 168.8 151.875 172.6 151.275C176.4 150.675 178.3 150.475 181.6 150.775C184.9 150.975 187.8 150.275 190.9 149.975C194 149.675 197 148.875 198.4 146.775C200.8 147.875 202.9 148.175 204.9 147.775C206.8 147.375 208.4 146.275 209.8 144.475C212 145.575 214.4 145.475 216.5 144.775C218.5 144.075 220.2 142.775 221 141.075C221.2 141.675 222.6 141.875 225.4 141.475C228.1 140.375 230.9 139.375 233.6 137.975C236.2 136.575 238.7 134.775 240.4 132.275C240.7 131.775 241.2 131.575 241.7 131.275C245.7 129.075 247.3 126.675 246.8 122.275C247 122.475 247.4 122.275 247.9 121.375C248 120.775 248.1 120.175 248.2 119.675C248.6 117.875 248.7 115.575 248.8 113.275C248.5 110.475 248.3 99.775 248 96.975C248 96.075 247.7 95.075 247.3 94.275Z" fill="#EA472C"/>
<path d="M235.8 90.8751C233.7 88.7751 231 86.9751 228 85.3751C226.5 84.5751 224.9 83.8751 223.2 83.1751L218.9 81.5751C213.4 79.5751 207.9 78.4751 202.4 77.8751C198.1 77.5751 194 76.9751 189.8 76.2751C185.8 75.4751 181.1 75.5751 176.9 75.2751C172.3 74.9751 168.4 75.1751 165.9 76.4751C160.2 74.2751 155.1 74.4751 149.8 76.7751C147 75.7751 144 75.4751 141.1 75.7751C138.1 76.0751 135.3 76.8751 133.6 78.0751C132.1 77.5751 130.4 77.0751 127.8 77.3751C123.8 77.8751 119.7 78.4751 115.6 79.3751C111.5 80.2751 107.4 81.6751 103.3 84.0751C102.6 84.5751 101.7 84.8751 100.8 85.1751C98.0001 86.2751 95.7001 87.5751 93.6001 89.5751C91.6001 91.5751 90.8001 95.1751 90.6001 99.1751L90.8001 100.475C90.8001 103.175 91.7001 105.675 93.0001 107.675C94.2001 109.575 95.7001 110.975 97.0001 112.075C99.8001 114.275 102.3 115.375 104.8 116.275C110.5 118.275 115.2 120.875 120.3 122.275C125 123.475 129.3 125.075 133.9 125.575C134.3 125.675 134.7 125.575 135.2 125.675C135.8 125.775 136.3 125.875 136.9 125.975C142.2 126.675 147.7 127.475 152.8 127.375C157.3 127.275 161.8 127.375 166.2 127.775C170.3 128.075 174.9 127.675 179.2 127.475C183.5 127.375 187.3 126.675 189.6 125.075C193.8 126.175 198.8 126.075 202 124.575C205.1 123.075 206.8 122.875 210.3 122.875C212.1 122.875 214 122.475 216 121.775C217 121.375 218.1 120.875 219.1 120.275C219.9 119.775 222 118.675 223.5 117.675C227.6 117.075 232.1 115.175 234.8 112.575C237.5 109.975 239.4 106.775 239.6 103.275C239.8 99.8751 238.4 93.3751 235.8 90.8751Z" fill="#F2C617"/>
<path d="M155.2 113.775C153.1 115.375 152.9 116.775 152.2 117.375C151.1 118.175 149.4 118.475 147.3 118.075C145.3 117.675 145.1 116.975 146.2 116.175C146.9 115.675 149.7 114.775 151.7 113.175C152.6 112.475 151.4 112.175 149.3 111.775C147.3 111.375 146.5 111.675 145.9 112.175C143.7 113.875 143.1 115.275 142.3 115.875C141.3 116.675 139.9 116.975 137.9 116.575C135.9 116.175 135.6 115.475 136.6 114.675C137.5 113.975 140.6 112.975 142.5 111.575C143.2 111.075 143.3 110.575 141.8 110.175C127.7 106.975 126.1 104.175 129.1 101.875C131.6 99.8749 137 99.3749 144.2 100.775C150.5 101.975 153.2 103.975 151.2 105.575C149.8 106.675 148 106.975 146.3 106.975C144.7 106.975 143.8 107.075 143.4 107.475C142.7 107.975 144.1 108.675 148.2 109.375C153.9 110.475 158.8 110.075 160.9 108.475C163.7 106.375 161.4 104.775 152.5 101.475C143.5 98.0749 139 95.4749 144.3 91.4749C148.4 88.3749 156.5 86.5749 170.3 88.0749C171.7 88.2749 172.8 88.0749 173.5 87.5749C175.8 85.7749 176.2 84.1749 177 83.5749C178.1 82.7749 179.8 82.4749 181.9 82.8749C183.9 83.2749 184.1 83.9749 183 84.7749C182.2 85.3749 179.2 86.3749 177 88.1749C176.1 88.8749 177.3 89.1749 179.4 89.5749C181.4 89.9749 182.2 89.6749 182.8 89.1749C185.2 87.3749 186.1 85.7749 186.9 85.0749C187.9 84.2749 189.4 84.0749 191.3 84.3749C193.3 84.7749 193.6 85.4749 192.6 86.2749C192 86.6749 188.3 88.2749 186.2 89.7749C185.5 90.2749 185.4 90.7749 186.9 91.1749C196.6 93.5749 199.7 96.1749 196.5 98.5749C194.1 100.475 189.2 100.975 182.8 99.7749C176.3 98.5749 172.7 96.8749 175.1 94.9749C176.3 94.0749 178.5 93.7749 180.6 93.6749C181.9 93.5749 183 93.4749 183.4 93.1749C184.1 92.5749 183.2 91.9749 178.7 91.1749C172 89.8749 167.8 90.5749 165.8 92.0749C163.9 93.5749 164 95.4749 175.3 99.3749C187.4 103.675 188.4 106.575 184.2 109.875C179.8 113.275 171 114.475 158.5 112.975C157 113.075 155.9 113.175 155.2 113.775Z" fill="#EA472C"/>
<path d="M488 193.575C480.1 201.475 465.5 205.675 455 216.275C454.2 217.075 454.2 217.875 454.9 218.575C455.5 219.175 456.5 219.175 457.8 218.575C463.5 215.875 474.7 210.375 480.6 216.275C484 219.675 484 224.775 479.8 229.075C478.8 230.075 477.8 230.275 476.4 229.475C468.6 225.475 457.1 220.875 449.2 223.675C447.8 224.075 446.8 223.675 446.1 222.975C445.4 222.275 445 221.375 445.4 219.875C448 211.775 443.6 200.375 439.4 192.775C438.7 191.575 438.8 190.475 439.8 189.375C444 185.175 449.2 185.075 452.6 188.475C458.6 194.375 453.1 205.575 450.4 211.275C449.7 212.575 449.8 213.575 450.4 214.175C451.1 214.875 451.9 214.875 452.7 214.075C463.2 203.475 467.3 188.875 475.2 180.975C480.7 175.475 484.9 177.575 488.1 180.675C491.3 183.775 493.5 187.975 488 193.575Z" fill="#F0C418"/>
<path d="M97.2908 492.266V489.386H95.4308L90.1508 472.976L84.2408 473.906V475.046L79.5908 489.386H77.7308V492.266H85.1408V489.386H83.2508L83.1608 489.266L83.9408 486.686H90.4208L91.2008 489.266L91.1108 489.386H89.2508V492.266H97.2908ZM89.5808 483.926H84.7808L87.0308 476.696H87.3908L89.5808 483.926ZM113.403 492.266V489.386H110.823L110.733 489.266V484.646H113.403V486.656H116.043L116.553 479.786H113.943L113.583 481.916H110.733V476.366H117.423L118.323 480.026H121.203V473.516H104.703V476.396H106.683L106.743 476.516V489.266L106.683 489.386H104.703V492.266H113.403ZM129.891 492.266V489.386H128.121L128.061 489.266V478.526H122.151V481.406H124.221L124.281 481.526V489.266L124.221 489.386H122.481V492.266H129.891ZM125.991 476.696C127.641 476.696 128.511 475.796 128.511 474.146C128.511 472.466 127.671 471.536 125.991 471.536C124.311 471.536 123.441 472.436 123.441 474.116C123.441 475.766 124.281 476.696 125.991 476.696ZM148.098 492.266V489.386H146.478L146.418 489.236V483.296C146.418 480.116 144.768 478.106 141.618 478.106C139.608 478.106 138.258 478.796 136.998 479.996H136.758L136.668 478.526H131.118V481.406H133.008L133.068 481.526V489.266L133.008 489.386H131.388V492.266H138.498V489.386H136.908L136.848 489.266V483.056C137.718 481.916 138.918 481.076 140.088 481.076C141.858 481.076 142.638 482.186 142.638 483.866V489.236L142.548 489.386H140.958V492.266H148.098ZM164.071 492.266V489.386H162.841C162.481 489.386 162.361 489.266 162.361 488.936V484.106C162.361 479.756 160.501 478.106 156.241 478.106C151.651 478.106 149.941 479.756 149.941 482.066C149.941 482.966 150.331 483.476 151.891 483.476C153.511 483.476 153.781 482.996 153.781 482.336C153.781 482.186 153.751 481.886 153.751 481.706C153.751 481.286 154.141 480.956 155.911 480.956C158.371 480.956 158.611 481.856 158.611 483.866C152.251 484.286 149.731 485.816 149.731 488.876C149.731 491.276 151.531 492.686 153.871 492.686C156.001 492.686 157.291 492.026 158.701 490.676H158.881C159.211 491.786 160.111 492.266 161.401 492.266H164.071ZM158.611 488.246C157.561 489.326 156.451 489.896 155.401 489.896C154.441 489.896 153.751 489.446 153.751 488.546C153.751 487.166 154.711 486.446 158.611 486.026V488.246ZM182.288 492.266V489.386H180.668L180.608 489.236V483.296C180.608 480.116 178.958 478.106 175.808 478.106C173.798 478.106 172.448 478.796 171.188 479.996H170.948L170.858 478.526H165.308V481.406H167.198L167.258 481.526V489.266L167.198 489.386H165.578V492.266H172.688V489.386H171.098L171.038 489.266V483.056C171.908 481.916 173.108 481.076 174.278 481.076C176.048 481.076 176.828 482.186 176.828 483.866V489.236L176.738 489.386H175.148V492.266H182.288ZM195.687 488.396C194.187 489.296 192.807 489.746 191.517 489.746C188.727 489.746 187.587 488.306 187.587 485.456C187.587 482.546 188.727 481.046 190.857 481.046C192.087 481.046 192.417 481.406 192.417 482.006C192.417 482.186 192.387 482.546 192.387 482.696C192.387 483.446 192.777 483.896 194.307 483.896C195.897 483.896 196.227 483.356 196.227 482.426C196.227 479.966 194.727 478.106 190.767 478.106C186.357 478.106 183.507 480.986 183.507 485.756C183.507 490.106 186.237 492.686 190.857 492.686C192.717 492.686 194.397 492.206 195.687 491.486V488.396ZM205.624 492.266V489.386H203.854L203.794 489.266V478.526H197.884V481.406H199.954L200.014 481.526V489.266L199.954 489.386H198.214V492.266H205.624ZM201.724 476.696C203.374 476.696 204.244 475.796 204.244 474.146C204.244 472.466 203.404 471.536 201.724 471.536C200.044 471.536 199.174 472.436 199.174 474.116C199.174 475.766 200.014 476.696 201.724 476.696ZM221.141 492.266V489.386H219.911C219.551 489.386 219.431 489.266 219.431 488.936V484.106C219.431 479.756 217.571 478.106 213.311 478.106C208.721 478.106 207.011 479.756 207.011 482.066C207.011 482.966 207.401 483.476 208.961 483.476C210.581 483.476 210.851 482.996 210.851 482.336C210.851 482.186 210.821 481.886 210.821 481.706C210.821 481.286 211.211 480.956 212.981 480.956C215.441 480.956 215.681 481.856 215.681 483.866C209.321 484.286 206.801 485.816 206.801 488.876C206.801 491.276 208.601 492.686 210.941 492.686C213.071 492.686 214.361 492.026 215.771 490.676H215.951C216.281 491.786 217.181 492.266 218.471 492.266H221.141ZM215.681 488.246C214.631 489.326 213.521 489.896 212.471 489.896C211.511 489.896 210.821 489.446 210.821 488.546C210.821 487.166 211.781 486.446 215.681 486.026V488.246ZM229.788 492.266V489.386H228.168L228.108 489.266V473.516H222.378V476.396H224.268L224.328 476.516V489.266L224.268 489.386H222.648V492.266H229.788ZM254.179 492.266L254.839 485.606H251.869L250.519 489.386H245.149L245.089 489.266V476.516L245.149 476.396H247.819V473.516H239.029V476.396H241.009L241.069 476.516V489.266L241.009 489.386H239.029V492.266H254.179ZM263.338 492.266V489.386H261.568L261.508 489.266V478.526H255.598V481.406H257.668L257.728 481.526V489.266L257.668 489.386H255.928V492.266H263.338ZM259.438 476.696C261.088 476.696 261.958 475.796 261.958 474.146C261.958 472.466 261.118 471.536 259.438 471.536C257.758 471.536 256.888 472.436 256.888 474.116C256.888 475.766 257.728 476.696 259.438 476.696ZM273.857 488.876C272.867 489.446 271.967 489.746 271.277 489.746C270.017 489.746 269.507 489.236 269.507 487.706V481.406H273.557L274.127 478.526H269.507V475.526H265.727V478.526H263.507V481.406H265.667L265.727 481.526V487.736C265.727 491.336 267.407 492.686 270.257 492.686C271.697 492.686 272.747 492.386 273.857 491.876V488.876ZM279.257 483.896C279.557 481.856 280.727 481.016 282.347 481.016C283.997 481.016 284.687 481.856 284.687 483.896H279.257ZM287.507 488.396C285.977 489.326 284.507 489.746 283.217 489.746C280.907 489.746 279.467 488.696 279.257 486.506H288.047C288.257 485.636 288.377 484.526 288.377 483.596C288.377 480.416 286.397 478.106 282.497 478.106C278.057 478.106 275.207 480.986 275.207 485.756C275.207 490.136 277.997 492.686 282.587 492.686C284.447 492.686 286.217 492.236 287.507 491.486V488.396ZM297.913 492.266V489.386H295.873L295.813 489.266V485.486C296.923 482.906 298.213 481.136 299.023 481.136C299.413 481.136 299.563 481.346 299.563 481.796C299.563 481.976 299.533 482.426 299.533 482.606C299.533 483.326 299.893 483.776 301.453 483.776C303.103 483.776 303.373 483.206 303.373 482.246C303.373 479.486 302.383 478.106 300.133 478.106C298.363 478.106 297.103 479.096 295.993 480.956H295.813V478.526H290.083V481.406H291.973L292.033 481.526V489.266L291.973 489.386H290.353V492.266H297.913ZM318.963 492.266V489.386H317.733C317.373 489.386 317.253 489.266 317.253 488.936V484.106C317.253 479.756 315.393 478.106 311.133 478.106C306.543 478.106 304.833 479.756 304.833 482.066C304.833 482.966 305.223 483.476 306.783 483.476C308.403 483.476 308.673 482.996 308.673 482.336C308.673 482.186 308.643 481.886 308.643 481.706C308.643 481.286 309.033 480.956 310.803 480.956C313.263 480.956 313.503 481.856 313.503 483.866C307.143 484.286 304.623 485.816 304.623 488.876C304.623 491.276 306.423 492.686 308.763 492.686C310.893 492.686 312.183 492.026 313.593 490.676H313.773C314.103 491.786 315.003 492.266 316.293 492.266H318.963ZM313.503 488.246C312.453 489.326 311.343 489.896 310.293 489.896C309.333 489.896 308.643 489.446 308.643 488.546C308.643 487.166 309.603 486.446 313.503 486.026V488.246ZM332.357 488.396C330.857 489.296 329.477 489.746 328.187 489.746C325.397 489.746 324.257 488.306 324.257 485.456C324.257 482.546 325.397 481.046 327.527 481.046C328.757 481.046 329.087 481.406 329.087 482.006C329.087 482.186 329.057 482.546 329.057 482.696C329.057 483.446 329.447 483.896 330.977 483.896C332.567 483.896 332.897 483.356 332.897 482.426C332.897 479.966 331.397 478.106 327.437 478.106C323.027 478.106 320.177 480.986 320.177 485.756C320.177 490.106 322.907 492.686 327.527 492.686C329.387 492.686 331.067 492.206 332.357 491.486V488.396ZM340.947 494.006C340.197 495.956 339.447 496.316 338.427 496.316C337.617 496.316 337.557 496.016 337.557 495.656C337.557 495.506 337.587 495.296 337.587 495.146C337.587 494.396 337.197 493.946 335.667 493.946C334.107 493.946 333.747 494.486 333.747 495.416C333.747 497.846 335.097 499.226 338.307 499.226C340.827 499.226 342.717 498.026 344.037 494.276L348.507 481.406H350.157V478.526H343.587V481.406H345.087L345.177 481.556L342.567 489.416H342.267L339.687 481.556L339.777 481.406H341.247V478.526H334.077V481.406H335.757L339.507 492.356H341.547L340.947 494.006ZM367.316 492.266C371.996 492.266 373.976 490.226 373.976 487.106C373.976 484.976 372.896 483.176 370.376 482.666V482.456C372.416 481.766 373.346 480.386 373.346 478.046C373.346 475.346 371.756 473.516 366.986 473.516H357.506V476.396H359.486L359.546 476.516V489.266L359.486 489.386H357.506V492.266H367.316ZM363.536 489.416V484.166H365.396C368.846 484.166 369.716 485.066 369.716 486.776C369.716 488.426 368.756 489.416 366.176 489.416H363.536ZM363.536 481.616V476.366H365.636C368.126 476.366 369.116 477.146 369.116 478.736C369.116 480.866 367.856 481.616 364.736 481.616H363.536ZM382.449 492.686C387.429 492.686 390.039 489.746 390.039 484.976C390.039 480.656 387.519 478.106 383.109 478.106C378.129 478.106 375.519 481.106 375.519 485.816C375.519 490.196 378.039 492.686 382.449 492.686ZM382.779 489.806C380.649 489.806 379.599 488.336 379.599 485.456C379.599 482.516 380.679 481.046 382.779 481.046C384.939 481.046 385.959 482.516 385.959 485.396C385.959 488.306 384.879 489.806 382.779 489.806ZM406.063 492.266V489.386H404.833C404.473 489.386 404.353 489.266 404.353 488.936V484.106C404.353 479.756 402.493 478.106 398.233 478.106C393.643 478.106 391.933 479.756 391.933 482.066C391.933 482.966 392.323 483.476 393.883 483.476C395.503 483.476 395.773 482.996 395.773 482.336C395.773 482.186 395.743 481.886 395.743 481.706C395.743 481.286 396.133 480.956 397.903 480.956C400.363 480.956 400.603 481.856 400.603 483.866C394.243 484.286 391.723 485.816 391.723 488.876C391.723 491.276 393.523 492.686 395.863 492.686C397.993 492.686 399.283 492.026 400.693 490.676H400.873C401.203 491.786 402.103 492.266 403.393 492.266H406.063ZM400.603 488.246C399.553 489.326 398.443 489.896 397.393 489.896C396.433 489.896 395.743 489.446 395.743 488.546C395.743 487.166 396.703 486.446 400.603 486.026V488.246ZM415.13 492.266V489.386H413.09L413.03 489.266V485.486C414.14 482.906 415.43 481.136 416.24 481.136C416.63 481.136 416.78 481.346 416.78 481.796C416.78 481.976 416.75 482.426 416.75 482.606C416.75 483.326 417.11 483.776 418.67 483.776C420.32 483.776 420.59 483.206 420.59 482.246C420.59 479.486 419.6 478.106 417.35 478.106C415.58 478.106 414.32 479.096 413.21 480.956H413.03V478.526H407.3V481.406H409.19L409.25 481.526V489.266L409.19 489.386H407.57V492.266H415.13ZM437.65 492.266V489.386H436.03L435.94 489.236V473.516H430.18V476.396H432.07L432.16 476.516V479.276C431.32 478.676 429.82 478.106 428.17 478.106C424.03 478.106 421.72 481.046 421.72 485.846C421.72 490.196 423.97 492.686 427.63 492.686C429.52 492.686 430.87 492.026 431.98 491.036H432.22L432.34 492.266H437.65ZM432.16 488.006C431.17 489.116 430.12 489.716 429.01 489.716C426.82 489.716 425.8 488.366 425.8 485.456C425.8 482.426 426.88 481.046 429.07 481.046C430.15 481.046 431.29 481.496 432.16 482.126V488.006ZM464.62 488.636H462.79V485.576H464.83V482.696H456.55V485.576H459.01V489.386C458.17 489.596 457.48 489.686 456.58 489.686C452.62 489.686 451 488.006 451 482.816C451 478.046 452.8 476.126 456.07 476.126C457.72 476.126 458.89 476.366 459.76 476.846L460.51 479.726H463.36V472.886C462.91 473.036 460.99 473.576 460.51 473.726C459.43 473.366 458.05 473.096 456.22 473.096C449.86 473.096 446.74 476.396 446.74 483.326C446.74 489.626 449.35 492.686 456.37 492.686C459.37 492.686 462.79 491.996 464.62 491.216V488.636ZM481.151 492.266V489.386H479.921C479.561 489.386 479.441 489.266 479.441 488.936V484.106C479.441 479.756 477.581 478.106 473.321 478.106C468.731 478.106 467.021 479.756 467.021 482.066C467.021 482.966 467.411 483.476 468.971 483.476C470.591 483.476 470.861 482.996 470.861 482.336C470.861 482.186 470.831 481.886 470.831 481.706C470.831 481.286 471.221 480.956 472.991 480.956C475.451 480.956 475.691 481.856 475.691 483.866C469.331 484.286 466.811 485.816 466.811 488.876C466.811 491.276 468.611 492.686 470.951 492.686C473.081 492.686 474.371 492.026 475.781 490.676H475.961C476.291 491.786 477.191 492.266 478.481 492.266H481.151ZM475.691 488.246C474.641 489.326 473.531 489.896 472.481 489.896C471.521 489.896 470.831 489.446 470.831 488.546C470.831 487.166 471.791 486.446 475.691 486.026V488.246ZM507.978 492.266V489.386H506.358L506.298 489.266V483.086C506.298 480.056 504.648 478.106 501.528 478.106C499.608 478.106 498.078 479.006 496.818 480.446H496.578C495.948 479.006 494.508 478.106 492.558 478.106C490.638 478.106 489.498 478.796 488.268 479.996H488.028L487.938 478.526H482.388V481.406H484.278L484.338 481.526V489.266L484.278 489.386H482.658V492.266H489.768V489.386H488.178L488.118 489.266V483.056C488.988 481.946 489.978 481.076 491.118 481.076C492.948 481.076 493.428 482.366 493.428 484.316V489.266L493.338 489.386H491.898V492.266H498.828V489.386H497.268L497.208 489.266V483.086C498.018 481.976 499.068 481.106 500.208 481.106C501.888 481.106 502.518 482.246 502.518 483.926V489.266L502.428 489.386H501.018V492.266H507.978ZM513.221 483.896C513.521 481.856 514.691 481.016 516.311 481.016C517.961 481.016 518.651 481.856 518.651 483.896H513.221ZM521.471 488.396C519.941 489.326 518.471 489.746 517.181 489.746C514.871 489.746 513.431 488.696 513.221 486.506H522.011C522.221 485.636 522.341 484.526 522.341 483.596C522.341 480.416 520.361 478.106 516.461 478.106C512.021 478.106 509.171 480.986 509.171 485.756C509.171 490.136 511.961 492.686 516.551 492.686C518.411 492.686 520.181 492.236 521.471 491.486V488.396Z" fill="#382D15"/>
</g>
<defs>
<clipPath id="clip0">
<rect width="607.6" height="543.7" fill="white" transform="translate(0.200195 0.875)"/>
</clipPath>
</defs>
</svg>
